G04 start of page 2 for group 10 layer_idx 1 *
G04 Title: (unknown), bottom_copper *
G04 Creator: pcb-rnd 3.1.4-dev *
G04 CreationDate: 2024-01-01 06:15:13 UTC *
G04 For: STEM4ukraine *
G04 Format: Gerber/RS-274X *
G04 PCB-Dimensions: 393701 393701 *
G04 PCB-Coordinate-Origin: lower left *
%MOIN*%
%FSLAX25Y25*%
%LNBOTTOM_COPPER_NONE_10*%
%ADD32C,0.0394*%
%ADD31C,0.0430*%
%ADD30C,0.0362*%
%ADD29C,0.0906*%
%ADD28C,0.0650*%
%ADD27C,0.0900*%
%ADD26C,0.0827*%
%ADD25C,0.1535*%
%ADD24C,0.0800*%
%ADD23C,0.0394*%
%ADD22C,0.0001*%
G54D22*G36*
X365285Y96440D02*X365000Y95574D01*
Y96135D01*
X365285Y96440D01*
G37*
G36*
X365227Y102116D02*X365522Y101855D01*
X365854Y101644D01*
X365944Y101605D01*
X366827Y101135D01*
X366262Y99415D01*
X366136Y99553D01*
X366090Y99589D01*
X365000Y100606D01*
Y102392D01*
X365227Y102116D01*
G37*
G36*
X392717Y392717D02*Y134038D01*
X392334Y134960D01*
X391800Y135833D01*
X391135Y136611D01*
X390357Y137275D01*
X389485Y137810D01*
X388540Y138201D01*
X387545Y138440D01*
X386525Y138520D01*
X385505Y138440D01*
X384510Y138201D01*
X383565Y137810D01*
X382693Y137275D01*
X381915Y136611D01*
X381250Y135833D01*
X380716Y134960D01*
X380324Y134015D01*
X380085Y133020D01*
X380005Y132000D01*
X380085Y130980D01*
X380324Y129985D01*
X380716Y129040D01*
X381250Y128168D01*
X381915Y127390D01*
X382557Y126842D01*
Y90870D01*
X365000Y73313D01*
Y87642D01*
X365029Y87617D01*
X365667Y87227D01*
X366358Y86940D01*
X367085Y86766D01*
X367830Y86707D01*
X368575Y86766D01*
X369302Y86940D01*
X369993Y87227D01*
X370631Y87617D01*
X371199Y88103D01*
X371685Y88671D01*
X372075Y89309D01*
X372361Y90000D01*
X372536Y90727D01*
X372580Y91472D01*
X372536Y92217D01*
X372416Y92717D01*
X374019Y97598D01*
X374051Y97595D01*
X374444Y97619D01*
X374828Y97704D01*
X375194Y97848D01*
X375533Y98048D01*
X375837Y98298D01*
X376098Y98593D01*
X376309Y98925D01*
X376348Y99015D01*
X380012Y105906D01*
X380065Y105988D01*
X380222Y106349D01*
X380222Y106349D01*
X380320Y106730D01*
X380358Y107122D01*
X380334Y107515D01*
X380249Y107899D01*
X380105Y108265D01*
X379905Y108604D01*
X379655Y108908D01*
X379360Y109168D01*
X379028Y109380D01*
X378938Y109419D01*
X372047Y113083D01*
X371964Y113136D01*
X371604Y113292D01*
X371603Y113293D01*
X371222Y113391D01*
X370831Y113429D01*
X370438Y113405D01*
X370054Y113320D01*
X369688Y113175D01*
X369349Y112976D01*
X369045Y112725D01*
X368784Y112431D01*
X368573Y112099D01*
X368534Y112009D01*
X365000Y105363D01*
Y392717D01*
X392717D01*
G37*
G36*
X371500Y47760D02*X371508Y47858D01*
X371477Y48250D01*
X371477Y48250D01*
X371385Y48633D01*
X371234Y48997D01*
X371029Y49332D01*
X370773Y49631D01*
X370474Y49887D01*
X370138Y50093D01*
X369775Y50243D01*
X369392Y50335D01*
X369000Y50366D01*
X368902Y50358D01*
X365000D01*
Y62088D01*
X388877Y85966D01*
X389340Y86361D01*
X389746Y86836D01*
X390072Y87368D01*
X390311Y87946D01*
X390457Y88553D01*
X390506Y89176D01*
X390504Y89201D01*
X390506Y89226D01*
X390494Y89381D01*
Y126842D01*
X391135Y127390D01*
X391800Y128168D01*
X392334Y129040D01*
X392717Y129963D01*
Y984D01*
X365000D01*
Y7840D01*
X365942Y7914D01*
X366860Y8134D01*
X367732Y8496D01*
X368538Y8989D01*
X369256Y9603D01*
X369869Y10321D01*
X370363Y11126D01*
X370724Y11999D01*
X370944Y12917D01*
X371000Y13858D01*
Y19016D01*
X370944Y19957D01*
X370724Y20876D01*
X370363Y21748D01*
X369869Y22553D01*
X369256Y23271D01*
X368538Y23885D01*
X367732Y24378D01*
X366860Y24740D01*
X365942Y24960D01*
X365000Y25034D01*
Y32158D01*
X368902D01*
X369000Y32150D01*
X369392Y32181D01*
X369775Y32273D01*
X370138Y32424D01*
X370474Y32629D01*
X370773Y32885D01*
X371029Y33184D01*
X371234Y33520D01*
X371385Y33883D01*
X371477Y34266D01*
X371508Y34658D01*
X371500Y34756D01*
Y47760D01*
G37*
G36*
X305346Y984D02*Y4201D01*
X306902D01*
X307000Y4193D01*
X307392Y4224D01*
X307392Y4224D01*
X307775Y4316D01*
X308138Y4466D01*
X308474Y4672D01*
X308773Y4928D01*
X309029Y5227D01*
X309157Y5435D01*
X309168Y5426D01*
X310040Y4891D01*
X310985Y4500D01*
X311980Y4261D01*
X313000Y4181D01*
X314020Y4261D01*
X315015Y4500D01*
X315960Y4891D01*
X316832Y5426D01*
X317610Y6090D01*
X318000Y6547D01*
X318390Y6090D01*
X319168Y5426D01*
X320040Y4891D01*
X320985Y4500D01*
X321980Y4261D01*
X323000Y4181D01*
X324020Y4261D01*
X325015Y4500D01*
X325960Y4891D01*
X326832Y5426D01*
X327610Y6090D01*
X328000Y6547D01*
X328390Y6090D01*
X329168Y5426D01*
X330040Y4891D01*
X330985Y4500D01*
X331980Y4261D01*
X333000Y4181D01*
X334020Y4261D01*
X335015Y4500D01*
X335960Y4891D01*
X336832Y5426D01*
X337610Y6090D01*
X338275Y6868D01*
X338809Y7741D01*
X339201Y8686D01*
X339440Y9681D01*
X339500Y10701D01*
X339440Y11721D01*
X339201Y12716D01*
X338809Y13661D01*
X338275Y14533D01*
X337610Y15311D01*
X336832Y15976D01*
X335960Y16510D01*
X335015Y16902D01*
X334020Y17141D01*
X333000Y17221D01*
X331980Y17141D01*
X330985Y16902D01*
X330040Y16510D01*
X329168Y15976D01*
X328390Y15311D01*
X328000Y14855D01*
X327610Y15311D01*
X326832Y15976D01*
X325960Y16510D01*
X325015Y16902D01*
X324020Y17141D01*
X323000Y17221D01*
X321980Y17141D01*
X320985Y16902D01*
X320040Y16510D01*
X319168Y15976D01*
X318390Y15311D01*
X318000Y14855D01*
X317610Y15311D01*
X316832Y15976D01*
X315960Y16510D01*
X315015Y16902D01*
X314020Y17141D01*
X313000Y17221D01*
X311980Y17141D01*
X310985Y16902D01*
X310040Y16510D01*
X309168Y15976D01*
X309157Y15966D01*
X309029Y16175D01*
X308773Y16474D01*
X308474Y16730D01*
X308138Y16935D01*
X307775Y17086D01*
X307392Y17178D01*
X307000Y17208D01*
X306902Y17201D01*
X305346D01*
Y34690D01*
X305483Y34806D01*
X305611Y34955D01*
X305715Y35123D01*
X305792Y35305D01*
X305839Y35497D01*
X305855Y35694D01*
X305841Y35890D01*
X305796Y36083D01*
X305721Y36265D01*
X305619Y36434D01*
X305491Y36585D01*
X305346Y36710D01*
Y44696D01*
X305489Y44820D01*
X305616Y44970D01*
X305718Y45138D01*
X305792Y45320D01*
X305837Y45512D01*
X305851Y45708D01*
X305835Y45904D01*
X305788Y46095D01*
X305712Y46277D01*
X305608Y46444D01*
X305480Y46593D01*
X305346Y46706D01*
Y50852D01*
X305356Y50851D01*
X306376Y50931D01*
X307371Y51170D01*
X308316Y51561D01*
X309188Y52096D01*
X309966Y52760D01*
X310631Y53538D01*
X311165Y54411D01*
X311557Y55356D01*
X311796Y56351D01*
X311856Y57371D01*
X311796Y58391D01*
X311557Y59386D01*
X311165Y60331D01*
X310631Y61203D01*
X309966Y61981D01*
X309188Y62646D01*
X308316Y63180D01*
X307371Y63572D01*
X306376Y63811D01*
X305356Y63891D01*
X305346Y63890D01*
Y392717D01*
X365000D01*
Y105363D01*
X364870Y105118D01*
X364817Y105035D01*
X364660Y104675D01*
X364660Y104674D01*
X364562Y104293D01*
X364524Y103902D01*
X364548Y103509D01*
X364633Y103125D01*
X364777Y102759D01*
X364977Y102420D01*
X365000Y102392D01*
Y100606D01*
X361422Y103942D01*
X361382Y103986D01*
X361198Y104133D01*
X361197Y104133D01*
X360992Y104249D01*
X360771Y104332D01*
X360586Y104369D01*
X360539Y104379D01*
X360529Y104379D01*
X360304Y104389D01*
X360069Y104362D01*
X359841Y104299D01*
X359627Y104201D01*
X359430Y104071D01*
X359256Y103911D01*
X359219Y103865D01*
X354866Y99197D01*
X354823Y99158D01*
X354676Y98973D01*
X354676Y98973D01*
X354559Y98767D01*
X354477Y98546D01*
X354439Y98362D01*
X354430Y98315D01*
X354429Y98305D01*
X354419Y98079D01*
X354446Y97844D01*
X354509Y97617D01*
X354607Y97402D01*
X354737Y97205D01*
X354897Y97031D01*
X354943Y96994D01*
X359611Y92642D01*
X359651Y92598D01*
X359835Y92451D01*
X359835Y92451D01*
X360041Y92335D01*
X360262Y92252D01*
X360446Y92215D01*
X360493Y92205D01*
X360504Y92205D01*
X360729Y92195D01*
X360964Y92222D01*
X361191Y92285D01*
X361406Y92383D01*
X361603Y92513D01*
X361777Y92672D01*
X361814Y92718D01*
X365000Y96135D01*
Y95574D01*
X364876Y95195D01*
X364461Y94841D01*
X363975Y94272D01*
X363585Y93635D01*
X363299Y92944D01*
X363124Y92217D01*
X363065Y91472D01*
X363124Y90727D01*
X363299Y90000D01*
X363585Y89309D01*
X363975Y88671D01*
X364461Y88103D01*
X365000Y87642D01*
Y73313D01*
X358145Y66458D01*
X358180Y66900D01*
X358167Y67055D01*
Y81596D01*
X358809Y82144D01*
X359474Y82922D01*
X360008Y83794D01*
X360400Y84739D01*
X360639Y85734D01*
X360699Y86754D01*
X360639Y87774D01*
X360400Y88769D01*
X360008Y89714D01*
X359474Y90587D01*
X358809Y91365D01*
X358031Y92029D01*
X357159Y92564D01*
X356214Y92955D01*
X355219Y93194D01*
X354199Y93274D01*
X353179Y93194D01*
X352184Y92955D01*
X351239Y92564D01*
X350366Y92029D01*
X349588Y91365D01*
X348924Y90587D01*
X348389Y89714D01*
X347998Y88769D01*
X347759Y87774D01*
X347679Y86754D01*
X347759Y85734D01*
X347998Y84739D01*
X348389Y83794D01*
X348924Y82922D01*
X349588Y82144D01*
X350230Y81596D01*
Y68543D01*
X335356Y53669D01*
X322419D01*
X322787Y53895D01*
X323356Y54381D01*
X323841Y54949D01*
X324232Y55587D01*
X324518Y56277D01*
X324692Y57004D01*
X324707Y57256D01*
X328185Y61512D01*
X328206Y61506D01*
X328244Y61503D01*
X328598Y61469D01*
X328991Y61493D01*
X329375Y61578D01*
X329741Y61722D01*
X330080Y61922D01*
X330156Y61984D01*
X336549Y66460D01*
X336634Y66510D01*
X336937Y66761D01*
X336937Y66761D01*
X337198Y67055D01*
X337409Y67387D01*
X337566Y67748D01*
X337639Y68031D01*
X337665Y68129D01*
X337668Y68167D01*
X337702Y68521D01*
X337678Y68914D01*
X337593Y69298D01*
X337449Y69664D01*
X337249Y70003D01*
X337187Y70079D01*
X332711Y76471D01*
X332661Y76556D01*
X332411Y76860D01*
X332410Y76860D01*
X332116Y77121D01*
X331784Y77332D01*
X331423Y77489D01*
X331141Y77562D01*
X331042Y77587D01*
X331004Y77591D01*
X330650Y77625D01*
X330258Y77601D01*
X329873Y77516D01*
X329507Y77372D01*
X329168Y77172D01*
X329092Y77109D01*
X322700Y72633D01*
X322615Y72583D01*
X322311Y72333D01*
X322311Y72333D01*
X322051Y72038D01*
X321839Y71706D01*
X321682Y71346D01*
X321609Y71063D01*
X321584Y70965D01*
X321580Y70927D01*
X321546Y70573D01*
X321570Y70180D01*
X321655Y69796D01*
X321799Y69430D01*
X321999Y69091D01*
X322062Y69015D01*
X322986Y67694D01*
X321274Y65599D01*
X321249Y65704D01*
X321158Y65923D01*
X321128Y65973D01*
X318230Y71660D01*
X318208Y71714D01*
X318084Y71915D01*
X318084Y71915D01*
X317931Y72095D01*
X317751Y72248D01*
X317550Y72372D01*
X317332Y72462D01*
X317102Y72517D01*
X316867Y72536D01*
X316632Y72517D01*
X316402Y72462D01*
X316184Y72372D01*
X316133Y72341D01*
X310447Y69443D01*
X310392Y69421D01*
X310191Y69297D01*
X310191Y69297D01*
X310011Y69144D01*
X309858Y68964D01*
X309735Y68763D01*
X309644Y68545D01*
X309589Y68315D01*
X309571Y68080D01*
X309589Y67845D01*
X309644Y67615D01*
X309735Y67397D01*
X309766Y67347D01*
X312663Y61660D01*
X312686Y61605D01*
X312809Y61404D01*
X312809Y61404D01*
X312962Y61225D01*
X313142Y61071D01*
X313343Y60948D01*
X313561Y60858D01*
X313791Y60802D01*
X314026Y60784D01*
X314262Y60802D01*
X314491Y60858D01*
X314709Y60948D01*
X314760Y60979D01*
X319454Y63371D01*
X318576Y62296D01*
X318514Y62281D01*
X317823Y61995D01*
X317186Y61604D01*
X316617Y61119D01*
X316132Y60550D01*
X315741Y59913D01*
X315455Y59222D01*
X315280Y58495D01*
X315222Y57750D01*
X315280Y57004D01*
X315455Y56277D01*
X315741Y55587D01*
X316132Y54949D01*
X316617Y54381D01*
X317186Y53895D01*
X317554Y53669D01*
X317155D01*
X317000Y53682D01*
X316377Y53633D01*
X315770Y53487D01*
X315193Y53248D01*
X314660Y52921D01*
X314660Y52921D01*
X314185Y52516D01*
X314084Y52397D01*
X310304Y48617D01*
X310185Y48516D01*
X309780Y48041D01*
X309453Y47508D01*
X309214Y46931D01*
X309068Y46324D01*
X309068Y46323D01*
X309032Y45860D01*
X308390Y45311D01*
X307725Y44533D01*
X307191Y43661D01*
X306799Y42716D01*
X306560Y41721D01*
X306480Y40701D01*
X306560Y39681D01*
X306799Y38686D01*
X307191Y37741D01*
X307725Y36868D01*
X308390Y36090D01*
X309168Y35426D01*
X310040Y34891D01*
X310985Y34500D01*
X311980Y34261D01*
X313000Y34181D01*
X314020Y34261D01*
X315015Y34500D01*
X315960Y34891D01*
X316832Y35426D01*
X317610Y36090D01*
X318000Y36547D01*
X318390Y36090D01*
X319031Y35542D01*
Y33356D01*
X319019Y33201D01*
X319068Y32578D01*
X319214Y31971D01*
X319453Y31394D01*
X319780Y30861D01*
X319780Y30861D01*
X320185Y30386D01*
X320304Y30285D01*
X322584Y28005D01*
X322685Y27886D01*
X323160Y27480D01*
X323160Y27480D01*
X323693Y27154D01*
X324270Y26915D01*
X324877Y26769D01*
X325500Y26720D01*
X325656Y26732D01*
X356844D01*
X357000Y26720D01*
X357623Y26769D01*
X358230Y26915D01*
X358807Y27154D01*
X359340Y27480D01*
X359815Y27886D01*
X359916Y28005D01*
X364070Y32158D01*
X365000D01*
Y25034D01*
X364058Y24960D01*
X363140Y24740D01*
X362268Y24378D01*
X361462Y23885D01*
X360744Y23271D01*
X360131Y22553D01*
X359637Y21748D01*
X359276Y20876D01*
X359056Y19957D01*
X359000Y19016D01*
Y13858D01*
X359056Y12917D01*
X359276Y11999D01*
X359637Y11126D01*
X360131Y10321D01*
X360744Y9603D01*
X361462Y8989D01*
X362268Y8496D01*
X363140Y8134D01*
X364058Y7914D01*
X365000Y7840D01*
Y984D01*
X305346D01*
G37*
G36*
X361098Y50358D02*X361000Y50366D01*
X360608Y50335D01*
X360225Y50243D01*
X359862Y50093D01*
X359526Y49887D01*
X359227Y49631D01*
X358971Y49332D01*
X358766Y48997D01*
X358615Y48633D01*
X358523Y48250D01*
X358492Y47858D01*
X358500Y47760D01*
Y37813D01*
X355356Y34669D01*
X335424D01*
X335960Y34891D01*
X336832Y35426D01*
X337610Y36090D01*
X338159Y36733D01*
X338623Y36769D01*
X338623Y36769D01*
X339230Y36915D01*
X339807Y37154D01*
X340340Y37480D01*
X340815Y37886D01*
X340916Y38005D01*
X365000Y62088D01*
Y50358D01*
X361098D01*
G37*
G36*
X299098Y17201D02*X299000Y17208D01*
X298608Y17178D01*
X298608Y17178D01*
X298225Y17086D01*
X297878Y16942D01*
Y37855D01*
X297993Y37845D01*
X298190Y37860D01*
X298382Y37905D01*
X298564Y37980D01*
X298733Y38082D01*
X298884Y38209D01*
X299013Y38359D01*
X299117Y38527D01*
X299193Y38709D01*
X299240Y38900D01*
X299257Y39097D01*
X299242Y39294D01*
X299193Y39485D01*
X299097Y39825D01*
X299035Y40172D01*
X299004Y40524D01*
Y40877D01*
X299035Y41229D01*
X299097Y41577D01*
X299190Y41918D01*
X299238Y42108D01*
X299253Y42305D01*
X299236Y42501D01*
X299190Y42692D01*
X299113Y42873D01*
X299010Y43040D01*
X298881Y43189D01*
X298731Y43316D01*
X298563Y43418D01*
X298381Y43493D01*
X298189Y43538D01*
X297993Y43552D01*
X297878Y43543D01*
Y392717D01*
X305346D01*
Y63890D01*
X304336Y63811D01*
X303341Y63572D01*
X302396Y63180D01*
X301523Y62646D01*
X300745Y61981D01*
X300081Y61203D01*
X299546Y60331D01*
X299155Y59386D01*
X298916Y58391D01*
X298836Y57371D01*
X298916Y56351D01*
X299155Y55356D01*
X299546Y54411D01*
X300081Y53538D01*
X300745Y52760D01*
X301523Y52096D01*
X302396Y51561D01*
X303341Y51170D01*
X304336Y50931D01*
X305346Y50852D01*
Y46706D01*
X305330Y46720D01*
X305161Y46822D01*
X304978Y46893D01*
X304425Y47049D01*
X303860Y47150D01*
X303287Y47201D01*
X302713D01*
X302140Y47150D01*
X301575Y47049D01*
X301020Y46899D01*
X300837Y46825D01*
X300668Y46723D01*
X300517Y46596D01*
X300389Y46446D01*
X300285Y46278D01*
X300208Y46096D01*
X300161Y45905D01*
X300145Y45708D01*
X300159Y45511D01*
X300204Y45319D01*
X300279Y45136D01*
X300381Y44968D01*
X300509Y44817D01*
X300658Y44688D01*
X300826Y44584D01*
X301008Y44508D01*
X301199Y44461D01*
X301396Y44444D01*
X301593Y44459D01*
X301784Y44507D01*
X302124Y44604D01*
X302471Y44666D01*
X302823Y44697D01*
X303177D01*
X303529Y44666D01*
X303876Y44604D01*
X304217Y44511D01*
X304408Y44462D01*
X304604Y44448D01*
X304800Y44464D01*
X304991Y44511D01*
X305172Y44587D01*
X305340Y44691D01*
X305346Y44696D01*
Y36710D01*
X305342Y36714D01*
X305174Y36818D01*
X304992Y36894D01*
X304801Y36941D01*
X304604Y36958D01*
X304407Y36943D01*
X304216Y36894D01*
X303876Y36798D01*
X303529Y36736D01*
X303177Y36705D01*
X302823D01*
X302471Y36736D01*
X302124Y36798D01*
X301783Y36890D01*
X301592Y36939D01*
X301396Y36954D01*
X301200Y36937D01*
X301009Y36890D01*
X300828Y36814D01*
X300660Y36710D01*
X300511Y36582D01*
X300384Y36432D01*
X300282Y36263D01*
X300208Y36081D01*
X300163Y35890D01*
X300149Y35694D01*
X300165Y35498D01*
X300212Y35306D01*
X300288Y35125D01*
X300392Y34958D01*
X300520Y34809D01*
X300670Y34682D01*
X300839Y34580D01*
X301022Y34509D01*
X301575Y34352D01*
X302140Y34251D01*
X302713Y34201D01*
X303287D01*
X303860Y34251D01*
X304425Y34352D01*
X304980Y34503D01*
X305163Y34576D01*
X305332Y34679D01*
X305346Y34690D01*
Y17201D01*
X299098D01*
G37*
G36*
X297862Y16935D02*X297526Y16730D01*
X297227Y16474D01*
X296971Y16175D01*
X296766Y15839D01*
X296615Y15476D01*
X296523Y15093D01*
X296492Y14701D01*
X296495Y14669D01*
X270188D01*
Y40302D01*
X272951Y42277D01*
X273028Y42254D01*
X273418Y42203D01*
X273812Y42213D01*
X274199Y42285D01*
X274291Y42318D01*
X281829Y44338D01*
X281926Y44356D01*
X282297Y44487D01*
X282297Y44487D01*
X282643Y44675D01*
X282955Y44914D01*
X283226Y45200D01*
X283449Y45524D01*
X283618Y45879D01*
X283730Y46256D01*
X283781Y46647D01*
X283771Y47040D01*
X283699Y47427D01*
X283666Y47520D01*
X281647Y55058D01*
X281629Y55154D01*
X281497Y55525D01*
X281497Y55525D01*
X281310Y55871D01*
X281070Y56183D01*
X280785Y56454D01*
X280460Y56677D01*
X280105Y56846D01*
X279728Y56958D01*
X279338Y57010D01*
X278944Y56999D01*
X278557Y56928D01*
X278465Y56895D01*
X270927Y54875D01*
X270830Y54857D01*
X270459Y54726D01*
X270459Y54726D01*
X270188Y54579D01*
Y392717D01*
X297878D01*
Y43543D01*
X297797Y43536D01*
X297606Y43489D01*
X297424Y43413D01*
X297257Y43309D01*
X297108Y43181D01*
X296981Y43030D01*
X296879Y42862D01*
X296808Y42679D01*
X296652Y42126D01*
X296551Y41560D01*
X296500Y40988D01*
Y40413D01*
X296551Y39841D01*
X296652Y39275D01*
X296802Y38721D01*
X296875Y38538D01*
X296978Y38369D01*
X297105Y38218D01*
X297255Y38089D01*
X297422Y37985D01*
X297604Y37909D01*
X297796Y37862D01*
X297878Y37855D01*
Y16942D01*
X297862Y16935D01*
G37*
G36*
X254505Y14669D02*X254508Y14701D01*
X254477Y15093D01*
X254477Y15093D01*
X254385Y15476D01*
X254234Y15839D01*
X254029Y16175D01*
X253773Y16474D01*
X253474Y16730D01*
X253138Y16935D01*
X252775Y17086D01*
X252392Y17178D01*
X252000Y17208D01*
X251902Y17201D01*
X248773D01*
Y36647D01*
X248783Y36646D01*
X249803Y36726D01*
X250798Y36965D01*
X251744Y37356D01*
X252616Y37891D01*
X253394Y38555D01*
X254058Y39333D01*
X254593Y40206D01*
X254984Y41151D01*
X255223Y42146D01*
X255283Y43166D01*
X255223Y44186D01*
X254984Y45181D01*
X254593Y46126D01*
X254058Y46998D01*
X253394Y47776D01*
X252616Y48441D01*
X251744Y48975D01*
X250798Y49367D01*
X249803Y49606D01*
X248783Y49686D01*
X248773Y49685D01*
Y392717D01*
X270188D01*
Y54579D01*
X270113Y54538D01*
X269801Y54298D01*
X269530Y54013D01*
X269307Y53689D01*
X269138Y53333D01*
X269026Y52956D01*
X268975Y52566D01*
X268985Y52173D01*
X269057Y51786D01*
X269090Y51693D01*
X269634Y49663D01*
X267306Y47998D01*
X267310Y48136D01*
X267279Y48370D01*
X267262Y48426D01*
X265935Y54669D01*
X265928Y54728D01*
X265861Y54954D01*
X265861Y54954D01*
X265759Y55167D01*
X265625Y55362D01*
X265463Y55533D01*
X265275Y55677D01*
X265068Y55789D01*
X264845Y55868D01*
X264613Y55911D01*
X264377Y55917D01*
X264143Y55886D01*
X264086Y55870D01*
X257843Y54543D01*
X257785Y54535D01*
X257559Y54468D01*
X257559Y54468D01*
X257346Y54366D01*
X257151Y54233D01*
X256980Y54070D01*
X256836Y53883D01*
X256723Y53675D01*
X256645Y53453D01*
X256601Y53221D01*
X256595Y52985D01*
X256626Y52750D01*
X256643Y52694D01*
X257970Y46451D01*
X257978Y46393D01*
X258045Y46166D01*
X258045Y46166D01*
X258146Y45953D01*
X258280Y45758D01*
X258443Y45587D01*
X258630Y45443D01*
X258837Y45331D01*
X259060Y45252D01*
X259292Y45209D01*
X259528Y45203D01*
X259762Y45234D01*
X259819Y45250D01*
X265004Y46353D01*
X263853Y45529D01*
X263286Y45485D01*
X262559Y45310D01*
X261869Y45024D01*
X261231Y44633D01*
X260663Y44148D01*
X260177Y43579D01*
X259786Y42942D01*
X259500Y42251D01*
X259326Y41524D01*
X259267Y40779D01*
X259326Y40033D01*
X259500Y39306D01*
X259786Y38615D01*
X260177Y37978D01*
X260663Y37409D01*
X261231Y36924D01*
X261869Y36533D01*
X262559Y36247D01*
X263286Y36073D01*
X264032Y36014D01*
X264777Y36073D01*
X265504Y36247D01*
X266195Y36533D01*
X266832Y36924D01*
X267401Y37409D01*
X267886Y37978D01*
X268277Y38615D01*
X268465Y39070D01*
X270188Y40302D01*
Y14669D01*
X254505D01*
G37*
G36*
X248773Y984D02*Y4201D01*
X251902D01*
X252000Y4193D01*
X252392Y4224D01*
X252392Y4224D01*
X252775Y4316D01*
X253138Y4466D01*
X253474Y4672D01*
X253773Y4928D01*
X254029Y5227D01*
X254234Y5562D01*
X254385Y5926D01*
X254477Y6308D01*
X254508Y6701D01*
X254505Y6732D01*
X296495D01*
X296492Y6701D01*
X296523Y6309D01*
X296523Y6308D01*
X296615Y5926D01*
X296766Y5562D01*
X296971Y5227D01*
X297227Y4928D01*
X297526Y4672D01*
X297862Y4466D01*
X298225Y4316D01*
X298608Y4224D01*
X299000Y4193D01*
X299098Y4201D01*
X305346D01*
Y984D01*
X248773D01*
G37*
G36*
X247112Y17201D02*X241916Y22397D01*
X241815Y22516D01*
X241340Y22921D01*
X240807Y23248D01*
X240230Y23487D01*
X239740Y23604D01*
X239623Y23633D01*
X239000Y23682D01*
X238844Y23669D01*
X223122D01*
Y34396D01*
X223351Y34416D01*
X223450Y34417D01*
X223838Y34482D01*
X223838Y34482D01*
X224211Y34607D01*
X224560Y34788D01*
X224876Y35022D01*
X225152Y35303D01*
X225381Y35623D01*
X225556Y35976D01*
X225674Y36351D01*
X225733Y36740D01*
X225729Y37134D01*
X225713Y37231D01*
X225033Y45005D01*
X225032Y45103D01*
X224967Y45491D01*
X224967Y45491D01*
X224842Y45864D01*
X224660Y46213D01*
X224426Y46530D01*
X224146Y46806D01*
X223825Y47034D01*
X223473Y47210D01*
X223122Y47321D01*
Y392717D01*
X248773D01*
Y49685D01*
X247764Y49606D01*
X246769Y49367D01*
X245823Y48975D01*
X244951Y48441D01*
X244173Y47776D01*
X243509Y46998D01*
X242974Y46126D01*
X242583Y45181D01*
X242344Y44186D01*
X242263Y43166D01*
X242344Y42146D01*
X242583Y41151D01*
X242974Y40206D01*
X243509Y39333D01*
X244173Y38555D01*
X244951Y37891D01*
X245823Y37356D01*
X246769Y36965D01*
X247764Y36726D01*
X248773Y36647D01*
Y17201D01*
X247112D01*
G37*
G36*
X223122Y984D02*Y7859D01*
X223203Y7866D01*
X223394Y7913D01*
X223576Y7989D01*
X223743Y8092D01*
X223892Y8221D01*
X224019Y8371D01*
X224121Y8539D01*
X224192Y8723D01*
X224348Y9275D01*
X224449Y9841D01*
X224500Y10413D01*
Y10988D01*
X224449Y11560D01*
X224348Y12126D01*
X224198Y12681D01*
X224125Y12864D01*
X224022Y13033D01*
X223895Y13183D01*
X223745Y13312D01*
X223578Y13416D01*
X223396Y13493D01*
X223204Y13540D01*
X223122Y13547D01*
Y15732D01*
X237356D01*
X241500Y11588D01*
Y6799D01*
X241492Y6701D01*
X241523Y6309D01*
X241523Y6308D01*
X241615Y5926D01*
X241766Y5562D01*
X241971Y5227D01*
X242227Y4928D01*
X242526Y4672D01*
X242862Y4466D01*
X243225Y4316D01*
X243608Y4224D01*
X244000Y4193D01*
X244098Y4201D01*
X248773D01*
Y984D01*
X223122D01*
G37*
G36*
X223098Y47328D02*X222709Y47386D01*
X222315Y47383D01*
X222218Y47367D01*
X218002Y46998D01*
Y392717D01*
X223122D01*
Y47321D01*
X223098Y47328D01*
G37*
G36*
X218002Y23669D02*Y33948D01*
X223122Y34396D01*
Y23669D01*
X218002D01*
G37*
G36*
Y984D02*Y4201D01*
X218287D01*
X218860Y4251D01*
X219425Y4352D01*
X219980Y4503D01*
X220163Y4576D01*
X220332Y4679D01*
X220483Y4806D01*
X220611Y4955D01*
X220715Y5123D01*
X220792Y5305D01*
X220839Y5497D01*
X220855Y5694D01*
X220841Y5890D01*
X220796Y6083D01*
X220721Y6265D01*
X220619Y6434D01*
X220491Y6585D01*
X220342Y6714D01*
X220174Y6818D01*
X219992Y6894D01*
X219801Y6941D01*
X219604Y6958D01*
X219407Y6943D01*
X219216Y6894D01*
X218876Y6798D01*
X218529Y6736D01*
X218177Y6705D01*
X218002D01*
Y14697D01*
X218177D01*
X218529Y14666D01*
X218876Y14604D01*
X219217Y14511D01*
X219408Y14462D01*
X219604Y14448D01*
X219800Y14464D01*
X219991Y14511D01*
X220172Y14587D01*
X220340Y14691D01*
X220489Y14820D01*
X220616Y14970D01*
X220718Y15138D01*
X220792Y15320D01*
X220837Y15512D01*
X220851Y15708D01*
X220849Y15732D01*
X223122D01*
Y13547D01*
X223007Y13556D01*
X222810Y13542D01*
X222618Y13497D01*
X222436Y13422D01*
X222267Y13320D01*
X222116Y13192D01*
X221987Y13043D01*
X221883Y12875D01*
X221807Y12693D01*
X221760Y12501D01*
X221743Y12305D01*
X221758Y12108D01*
X221807Y11917D01*
X221903Y11577D01*
X221965Y11229D01*
X221996Y10877D01*
Y10524D01*
X221965Y10172D01*
X221903Y9825D01*
X221810Y9484D01*
X221762Y9293D01*
X221747Y9097D01*
X221764Y8901D01*
X221810Y8710D01*
X221887Y8528D01*
X221990Y8361D01*
X222119Y8212D01*
X222269Y8085D01*
X222437Y7983D01*
X222619Y7909D01*
X222811Y7864D01*
X223007Y7849D01*
X223122Y7859D01*
Y984D01*
X218002D01*
G37*
G36*
X196299Y23669D02*Y35014D01*
X199490D01*
X199549Y35009D01*
X199784Y35028D01*
X199785Y35028D01*
X200014Y35083D01*
X200232Y35173D01*
X200434Y35297D01*
X200613Y35450D01*
X200766Y35629D01*
X200890Y35831D01*
X200980Y36049D01*
X201035Y36278D01*
X201054Y36514D01*
X201049Y36573D01*
Y42955D01*
X201054Y43014D01*
X201035Y43249D01*
X201035Y43249D01*
X200980Y43479D01*
X200890Y43697D01*
X200766Y43898D01*
X200613Y44078D01*
X200434Y44231D01*
X200232Y44354D01*
X200014Y44445D01*
X199785Y44500D01*
X199549Y44518D01*
X199490Y44514D01*
X196299D01*
Y392717D01*
X218002D01*
Y46998D01*
X214444Y46686D01*
X214346Y46686D01*
X213958Y46621D01*
X213958Y46621D01*
X213584Y46496D01*
X213235Y46314D01*
X212919Y46080D01*
X212643Y45799D01*
X212415Y45479D01*
X212239Y45127D01*
X212121Y44751D01*
X212063Y44362D01*
X212065Y44100D01*
X208661Y43888D01*
X208462Y44009D01*
X207772Y44295D01*
X207045Y44470D01*
X206299Y44528D01*
X205554Y44470D01*
X204827Y44295D01*
X204136Y44009D01*
X203499Y43618D01*
X202930Y43133D01*
X202445Y42564D01*
X202054Y41927D01*
X201768Y41236D01*
X201593Y40509D01*
X201535Y39764D01*
X201593Y39018D01*
X201768Y38291D01*
X202054Y37601D01*
X202445Y36963D01*
X202930Y36395D01*
X203499Y35909D01*
X204136Y35518D01*
X204827Y35232D01*
X205554Y35058D01*
X206299Y34999D01*
X207045Y35058D01*
X207772Y35232D01*
X208462Y35518D01*
X209100Y35909D01*
X209167Y35967D01*
X212754Y36191D01*
X212762Y36097D01*
X212763Y35999D01*
X212828Y35611D01*
X212828Y35611D01*
X212953Y35238D01*
X213135Y34889D01*
X213369Y34573D01*
X213650Y34297D01*
X213970Y34068D01*
X214322Y33893D01*
X214697Y33774D01*
X215087Y33716D01*
X215480Y33720D01*
X215577Y33736D01*
X218002Y33948D01*
Y23669D01*
X196299D01*
G37*
G36*
X212878Y984D02*Y7855D01*
X212993Y7845D01*
X213190Y7860D01*
X213382Y7905D01*
X213564Y7980D01*
X213733Y8082D01*
X213884Y8209D01*
X214013Y8359D01*
X214117Y8527D01*
X214193Y8709D01*
X214240Y8900D01*
X214257Y9097D01*
X214242Y9294D01*
X214193Y9485D01*
X214097Y9825D01*
X214035Y10172D01*
X214004Y10524D01*
Y10877D01*
X214035Y11229D01*
X214097Y11577D01*
X214190Y11918D01*
X214238Y12108D01*
X214253Y12305D01*
X214236Y12501D01*
X214190Y12692D01*
X214113Y12873D01*
X214010Y13040D01*
X213881Y13189D01*
X213731Y13316D01*
X213563Y13418D01*
X213381Y13493D01*
X213189Y13538D01*
X212993Y13552D01*
X212878Y13543D01*
Y15732D01*
X215147D01*
X215145Y15708D01*
X215159Y15511D01*
X215204Y15319D01*
X215279Y15136D01*
X215381Y14968D01*
X215509Y14817D01*
X215658Y14688D01*
X215826Y14584D01*
X216008Y14508D01*
X216199Y14461D01*
X216396Y14444D01*
X216593Y14459D01*
X216784Y14507D01*
X217124Y14604D01*
X217471Y14666D01*
X217823Y14697D01*
X218002D01*
Y6705D01*
X217823D01*
X217471Y6736D01*
X217124Y6798D01*
X216783Y6890D01*
X216592Y6939D01*
X216396Y6954D01*
X216200Y6937D01*
X216009Y6890D01*
X215828Y6814D01*
X215660Y6710D01*
X215511Y6582D01*
X215384Y6432D01*
X215282Y6263D01*
X215208Y6081D01*
X215163Y5890D01*
X215149Y5694D01*
X215165Y5498D01*
X215212Y5306D01*
X215288Y5125D01*
X215392Y4958D01*
X215520Y4809D01*
X215670Y4682D01*
X215839Y4580D01*
X216022Y4509D01*
X216575Y4352D01*
X217140Y4251D01*
X217713Y4201D01*
X218002D01*
Y984D01*
X212878D01*
G37*
G36*
X196299D02*Y15732D01*
X198883D01*
X198390Y15311D01*
X197725Y14533D01*
X197191Y13661D01*
X196799Y12716D01*
X196560Y11721D01*
X196480Y10701D01*
X196560Y9681D01*
X196799Y8686D01*
X197191Y7741D01*
X197725Y6868D01*
X198390Y6090D01*
X199168Y5426D01*
X200040Y4891D01*
X200985Y4500D01*
X201980Y4261D01*
X203000Y4181D01*
X204020Y4261D01*
X205015Y4500D01*
X205960Y4891D01*
X206832Y5426D01*
X207610Y6090D01*
X208275Y6868D01*
X208809Y7741D01*
X209201Y8686D01*
X209440Y9681D01*
X209500Y10701D01*
X209440Y11721D01*
X209201Y12716D01*
X208809Y13661D01*
X208275Y14533D01*
X207610Y15311D01*
X207117Y15732D01*
X212878D01*
Y13543D01*
X212797Y13536D01*
X212606Y13489D01*
X212424Y13413D01*
X212257Y13309D01*
X212108Y13181D01*
X211981Y13030D01*
X211879Y12862D01*
X211808Y12679D01*
X211652Y12126D01*
X211551Y11560D01*
X211500Y10988D01*
Y10413D01*
X211551Y9841D01*
X211652Y9275D01*
X211802Y8721D01*
X211875Y8538D01*
X211978Y8369D01*
X212105Y8218D01*
X212255Y8089D01*
X212422Y7985D01*
X212604Y7909D01*
X212796Y7862D01*
X212878Y7855D01*
Y984D01*
X196299D01*
G37*
G36*
X68122D02*Y11392D01*
X68635Y11605D01*
X70000Y12442D01*
X71219Y13482D01*
X72259Y14700D01*
X73096Y16066D01*
X73709Y17546D01*
X74083Y19104D01*
X74177Y20701D01*
X74083Y22298D01*
X73709Y23855D01*
X73096Y25335D01*
X72259Y26701D01*
X71219Y27919D01*
X70000Y28960D01*
X68635Y29797D01*
X68122Y30009D01*
Y55859D01*
X68203Y55866D01*
X68394Y55913D01*
X68576Y55989D01*
X68743Y56092D01*
X68892Y56221D01*
X69019Y56371D01*
X69121Y56539D01*
X69192Y56723D01*
X69348Y57275D01*
X69449Y57841D01*
X69500Y58413D01*
Y58988D01*
X69449Y59560D01*
X69348Y60126D01*
X69198Y60681D01*
X69125Y60864D01*
X69022Y61033D01*
X68895Y61183D01*
X68745Y61312D01*
X68578Y61416D01*
X68396Y61493D01*
X68204Y61540D01*
X68122Y61547D01*
Y392717D01*
X196299D01*
Y44514D01*
X193108D01*
X193049Y44518D01*
X192814Y44500D01*
X192814Y44500D01*
X192584Y44445D01*
X192366Y44354D01*
X192165Y44231D01*
X191985Y44078D01*
X191832Y43898D01*
X191709Y43697D01*
X191618Y43479D01*
X191563Y43249D01*
X191545Y43014D01*
X191549Y42955D01*
Y36573D01*
X191545Y36514D01*
X191563Y36279D01*
X191563Y36278D01*
X191618Y36049D01*
X191709Y35831D01*
X191832Y35629D01*
X191985Y35450D01*
X192165Y35297D01*
X192366Y35173D01*
X192584Y35083D01*
X192814Y35028D01*
X193049Y35009D01*
X193108Y35014D01*
X196299D01*
Y23669D01*
X145644D01*
X137916Y31397D01*
X137815Y31516D01*
X137340Y31921D01*
X136807Y32248D01*
X136230Y32487D01*
X135623Y32633D01*
X135623Y32633D01*
X135000Y32682D01*
X134845Y32669D01*
X116778D01*
X116681Y32828D01*
X115965Y33666D01*
X115127Y34381D01*
X114188Y34957D01*
X113170Y35379D01*
X112098Y35636D01*
X111000Y35722D01*
X109902Y35636D01*
X108830Y35379D01*
X107812Y34957D01*
X106873Y34381D01*
X106035Y33666D01*
X105319Y32828D01*
X105222Y32669D01*
X91187D01*
X91090Y32828D01*
X90374Y33666D01*
X89536Y34381D01*
X88597Y34957D01*
X87579Y35379D01*
X86507Y35636D01*
X85409Y35722D01*
X84311Y35636D01*
X83239Y35379D01*
X82221Y34957D01*
X81282Y34381D01*
X80444Y33666D01*
X79728Y32828D01*
X79153Y31889D01*
X78731Y30871D01*
X78474Y29799D01*
X78387Y28701D01*
X78474Y27602D01*
X78731Y26531D01*
X79153Y25513D01*
X79728Y24574D01*
X80444Y23736D01*
X81282Y23020D01*
X82221Y22445D01*
X83239Y22023D01*
X84311Y21766D01*
X85409Y21679D01*
X86507Y21766D01*
X87579Y22023D01*
X88597Y22445D01*
X89536Y23020D01*
X90374Y23736D01*
X91090Y24574D01*
X91187Y24732D01*
X105222D01*
X105319Y24574D01*
X106035Y23736D01*
X106873Y23020D01*
X107812Y22445D01*
X108830Y22023D01*
X109902Y21766D01*
X111000Y21679D01*
X112098Y21766D01*
X113170Y22023D01*
X114188Y22445D01*
X115127Y23020D01*
X115965Y23736D01*
X116681Y24574D01*
X116778Y24732D01*
X133356D01*
X141084Y17005D01*
X141185Y16886D01*
X141660Y16480D01*
X141660Y16480D01*
X142193Y16154D01*
X142770Y15915D01*
X143377Y15769D01*
X144000Y15720D01*
X144156Y15732D01*
X166721D01*
X166615Y15476D01*
X166523Y15093D01*
X166492Y14701D01*
X166495Y14669D01*
X116778D01*
X116681Y14828D01*
X115965Y15666D01*
X115127Y16381D01*
X114188Y16957D01*
X113170Y17379D01*
X112098Y17636D01*
X111000Y17722D01*
X109902Y17636D01*
X108830Y17379D01*
X107812Y16957D01*
X106873Y16381D01*
X106035Y15666D01*
X105319Y14828D01*
X105222Y14669D01*
X91187D01*
X91090Y14828D01*
X90374Y15666D01*
X89536Y16381D01*
X88597Y16957D01*
X87579Y17379D01*
X86507Y17636D01*
X85409Y17722D01*
X84311Y17636D01*
X83239Y17379D01*
X82221Y16957D01*
X81282Y16381D01*
X80444Y15666D01*
X79728Y14828D01*
X79153Y13889D01*
X78731Y12871D01*
X78474Y11799D01*
X78387Y10701D01*
X78474Y9602D01*
X78731Y8531D01*
X79153Y7513D01*
X79728Y6574D01*
X80444Y5736D01*
X81282Y5020D01*
X82221Y4445D01*
X83239Y4023D01*
X84311Y3766D01*
X85409Y3679D01*
X86507Y3766D01*
X87579Y4023D01*
X88597Y4445D01*
X89536Y5020D01*
X90374Y5736D01*
X91090Y6574D01*
X91187Y6732D01*
X105222D01*
X105319Y6574D01*
X106035Y5736D01*
X106873Y5020D01*
X107812Y4445D01*
X108830Y4023D01*
X109902Y3766D01*
X111000Y3679D01*
X112098Y3766D01*
X113170Y4023D01*
X114188Y4445D01*
X115127Y5020D01*
X115965Y5736D01*
X116681Y6574D01*
X116778Y6732D01*
X166495D01*
X166492Y6701D01*
X166523Y6309D01*
X166523Y6308D01*
X166615Y5926D01*
X166766Y5562D01*
X166971Y5227D01*
X167227Y4928D01*
X167526Y4672D01*
X167862Y4466D01*
X168225Y4316D01*
X168608Y4224D01*
X169000Y4193D01*
X169098Y4201D01*
X176902D01*
X177000Y4193D01*
X177392Y4224D01*
X177392Y4224D01*
X177775Y4316D01*
X178138Y4466D01*
X178474Y4672D01*
X178773Y4928D01*
X179029Y5227D01*
X179234Y5562D01*
X179385Y5926D01*
X179477Y6308D01*
X179508Y6701D01*
X179500Y6799D01*
Y14603D01*
X179508Y14701D01*
X179477Y15093D01*
X179477Y15093D01*
X179385Y15476D01*
X179279Y15732D01*
X196299D01*
Y984D01*
X68122D01*
G37*
G36*
X67155Y30410D02*X65597Y30784D01*
X64000Y30909D01*
X63002Y30831D01*
Y52201D01*
X63287D01*
X63860Y52251D01*
X64425Y52352D01*
X64980Y52503D01*
X65163Y52576D01*
X65332Y52679D01*
X65483Y52806D01*
X65611Y52955D01*
X65715Y53123D01*
X65792Y53305D01*
X65839Y53497D01*
X65855Y53694D01*
X65841Y53890D01*
X65796Y54083D01*
X65721Y54265D01*
X65619Y54434D01*
X65491Y54585D01*
X65342Y54714D01*
X65174Y54818D01*
X64992Y54894D01*
X64801Y54941D01*
X64604Y54958D01*
X64407Y54943D01*
X64216Y54894D01*
X63876Y54798D01*
X63529Y54736D01*
X63177Y54705D01*
X63002D01*
Y62697D01*
X63177D01*
X63529Y62666D01*
X63876Y62604D01*
X64217Y62511D01*
X64408Y62462D01*
X64604Y62448D01*
X64800Y62464D01*
X64991Y62511D01*
X65172Y62587D01*
X65340Y62691D01*
X65489Y62820D01*
X65616Y62970D01*
X65718Y63138D01*
X65792Y63320D01*
X65837Y63512D01*
X65851Y63708D01*
X65835Y63904D01*
X65788Y64095D01*
X65712Y64277D01*
X65608Y64444D01*
X65480Y64593D01*
X65330Y64720D01*
X65161Y64822D01*
X64978Y64893D01*
X64425Y65049D01*
X63860Y65150D01*
X63287Y65201D01*
X63002D01*
Y392717D01*
X68122D01*
Y61547D01*
X68007Y61556D01*
X67810Y61542D01*
X67618Y61497D01*
X67436Y61422D01*
X67267Y61320D01*
X67116Y61192D01*
X66987Y61043D01*
X66883Y60875D01*
X66807Y60693D01*
X66760Y60501D01*
X66743Y60305D01*
X66758Y60108D01*
X66807Y59917D01*
X66903Y59577D01*
X66965Y59229D01*
X66996Y58877D01*
Y58524D01*
X66965Y58172D01*
X66903Y57825D01*
X66810Y57484D01*
X66762Y57293D01*
X66747Y57097D01*
X66764Y56901D01*
X66810Y56710D01*
X66887Y56528D01*
X66990Y56361D01*
X67119Y56212D01*
X67269Y56085D01*
X67437Y55983D01*
X67619Y55909D01*
X67811Y55864D01*
X68007Y55849D01*
X68122Y55859D01*
Y30009D01*
X67155Y30410D01*
G37*
G36*
X63002Y984D02*Y10571D01*
X64000Y10492D01*
X65597Y10618D01*
X67155Y10992D01*
X68122Y11392D01*
Y984D01*
X63002D01*
G37*
G36*
X53000D02*Y52201D01*
X56902D01*
X57000Y52193D01*
X57392Y52224D01*
X57392Y52224D01*
X57775Y52316D01*
X58138Y52466D01*
X58474Y52672D01*
X58773Y52928D01*
X59029Y53227D01*
X59234Y53562D01*
X59385Y53926D01*
X59477Y54308D01*
X59508Y54701D01*
X59500Y54799D01*
Y62603D01*
X59508Y62701D01*
X59477Y63093D01*
X59477Y63093D01*
X59385Y63476D01*
X59234Y63839D01*
X59029Y64175D01*
X58773Y64474D01*
X58474Y64730D01*
X58138Y64935D01*
X57775Y65086D01*
X57392Y65178D01*
X57000Y65208D01*
X56902Y65201D01*
X53000D01*
Y392717D01*
X63002D01*
Y65201D01*
X62713D01*
X62140Y65150D01*
X61575Y65049D01*
X61020Y64899D01*
X60837Y64825D01*
X60668Y64723D01*
X60517Y64596D01*
X60389Y64446D01*
X60285Y64278D01*
X60208Y64096D01*
X60161Y63905D01*
X60145Y63708D01*
X60159Y63511D01*
X60204Y63319D01*
X60279Y63136D01*
X60381Y62968D01*
X60509Y62817D01*
X60658Y62688D01*
X60826Y62584D01*
X61008Y62508D01*
X61199Y62461D01*
X61396Y62444D01*
X61593Y62459D01*
X61784Y62507D01*
X62124Y62604D01*
X62471Y62666D01*
X62823Y62697D01*
X63002D01*
Y54705D01*
X62823D01*
X62471Y54736D01*
X62124Y54798D01*
X61783Y54890D01*
X61592Y54939D01*
X61396Y54954D01*
X61200Y54937D01*
X61009Y54890D01*
X60828Y54814D01*
X60660Y54710D01*
X60511Y54582D01*
X60384Y54432D01*
X60282Y54263D01*
X60208Y54081D01*
X60163Y53890D01*
X60149Y53694D01*
X60165Y53498D01*
X60212Y53306D01*
X60288Y53125D01*
X60392Y52958D01*
X60520Y52809D01*
X60670Y52682D01*
X60839Y52580D01*
X61022Y52509D01*
X61575Y52352D01*
X62140Y52251D01*
X62713Y52201D01*
X63002D01*
Y30831D01*
X62403Y30784D01*
X60845Y30410D01*
X59365Y29797D01*
X58000Y28960D01*
X56781Y27919D01*
X55741Y26701D01*
X54904Y25335D01*
X54291Y23855D01*
X53917Y22298D01*
X53791Y20701D01*
X53917Y19104D01*
X54291Y17546D01*
X54904Y16066D01*
X55741Y14700D01*
X56781Y13482D01*
X58000Y12442D01*
X59365Y11605D01*
X60845Y10992D01*
X62403Y10618D01*
X63002Y10571D01*
Y984D01*
X53000D01*
G37*
G36*
X45211D02*Y10809D01*
X45220Y10808D01*
X46183Y10884D01*
X47122Y11109D01*
X48014Y11478D01*
X48837Y11983D01*
X49571Y12610D01*
X50198Y13344D01*
X50703Y14167D01*
X51072Y15059D01*
X51298Y15998D01*
X51354Y16961D01*
X51298Y17923D01*
X51072Y18862D01*
X50703Y19754D01*
X50198Y20577D01*
X49571Y21311D01*
X48837Y21938D01*
X48014Y22443D01*
X47122Y22812D01*
X46183Y23038D01*
X45220Y23113D01*
X45211Y23113D01*
Y23407D01*
X45220Y23406D01*
X46183Y23482D01*
X47122Y23707D01*
X48014Y24077D01*
X48837Y24581D01*
X49571Y25208D01*
X50198Y25943D01*
X50703Y26766D01*
X51072Y27658D01*
X51298Y28597D01*
X51354Y29559D01*
X51298Y30522D01*
X51072Y31460D01*
X50703Y32352D01*
X50198Y33176D01*
X49571Y33910D01*
X48837Y34537D01*
X48014Y35041D01*
X47122Y35411D01*
X46183Y35636D01*
X45220Y35712D01*
X45211Y35711D01*
Y392717D01*
X53000D01*
Y65201D01*
X49098D01*
X49000Y65208D01*
X48608Y65178D01*
X48608Y65178D01*
X48225Y65086D01*
X47862Y64935D01*
X47526Y64730D01*
X47227Y64474D01*
X46971Y64175D01*
X46766Y63839D01*
X46615Y63476D01*
X46523Y63093D01*
X46492Y62701D01*
X46500Y62603D01*
Y54799D01*
X46492Y54701D01*
X46523Y54309D01*
X46523Y54308D01*
X46615Y53926D01*
X46766Y53562D01*
X46971Y53227D01*
X47227Y52928D01*
X47526Y52672D01*
X47862Y52466D01*
X48225Y52316D01*
X48608Y52224D01*
X49000Y52193D01*
X49098Y52201D01*
X53000D01*
Y984D01*
X45211D01*
G37*
G36*
X44258Y23038D02*X43319Y22812D01*
X42427Y22443D01*
X41604Y21938D01*
X40870Y21311D01*
X40299Y20643D01*
X39729Y21311D01*
X38994Y21938D01*
X38171Y22443D01*
X37279Y22812D01*
X36340Y23038D01*
X35380Y23113D01*
Y23425D01*
X35648D01*
X36186Y23473D01*
X36717Y23567D01*
X37238Y23708D01*
X37745Y23894D01*
X37886Y23965D01*
X38014Y24058D01*
X38125Y24170D01*
X38218Y24299D01*
X38289Y24440D01*
X38337Y24590D01*
X38362Y24746D01*
X38361Y24904D01*
X38336Y25060D01*
X38287Y25210D01*
X38214Y25351D01*
X38121Y25479D01*
X38009Y25590D01*
X37881Y25682D01*
X37740Y25754D01*
X37589Y25802D01*
X37433Y25826D01*
X37275Y25826D01*
X37119Y25801D01*
X36970Y25749D01*
X36631Y25620D01*
X36280Y25525D01*
X35922Y25461D01*
X35560Y25429D01*
X35380D01*
Y33689D01*
X35560D01*
X35922Y33657D01*
X36280Y33593D01*
X36631Y33499D01*
X36972Y33373D01*
X37120Y33321D01*
X37276Y33296D01*
X37433Y33296D01*
X37589Y33320D01*
X37738Y33368D01*
X37879Y33439D01*
X38006Y33531D01*
X38118Y33642D01*
X38211Y33769D01*
X38283Y33909D01*
X38332Y34059D01*
X38357Y34214D01*
X38358Y34372D01*
X38334Y34527D01*
X38285Y34677D01*
X38214Y34817D01*
X38122Y34945D01*
X38011Y35057D01*
X37884Y35150D01*
X37743Y35219D01*
X37238Y35410D01*
X36717Y35551D01*
X36186Y35645D01*
X35648Y35693D01*
X35380D01*
Y55852D01*
X35406Y55844D01*
X35562Y55821D01*
X35719Y55822D01*
X35875Y55848D01*
X36024Y55897D01*
X36164Y55970D01*
X36290Y56063D01*
X36401Y56175D01*
X36492Y56303D01*
X36560Y56445D01*
X36758Y56989D01*
X36896Y57550D01*
X36979Y58123D01*
X37007Y58701D01*
X36979Y59279D01*
X36896Y59851D01*
X36758Y60413D01*
X36566Y60959D01*
X36496Y61101D01*
X36404Y61229D01*
X36293Y61342D01*
X36166Y61436D01*
X36026Y61509D01*
X35876Y61559D01*
X35720Y61584D01*
X35562Y61586D01*
X35405Y61562D01*
X35380Y61554D01*
Y392717D01*
X45211D01*
Y35711D01*
X44258Y35636D01*
X43319Y35411D01*
X42427Y35041D01*
X41604Y34537D01*
X40870Y33910D01*
X40243Y33176D01*
X39830Y32502D01*
X39727Y32468D01*
X39586Y32396D01*
X39458Y32302D01*
X39347Y32190D01*
X39255Y32062D01*
X39183Y31921D01*
X39135Y31771D01*
X39111Y31614D01*
X39111Y31456D01*
X39136Y31300D01*
X39188Y31151D01*
X39254Y30980D01*
X39143Y30522D01*
X39068Y29559D01*
X39143Y28597D01*
X39254Y28135D01*
X39192Y27965D01*
X39140Y27817D01*
X39115Y27661D01*
X39115Y27504D01*
X39139Y27348D01*
X39187Y27199D01*
X39258Y27058D01*
X39350Y26931D01*
X39461Y26819D01*
X39588Y26726D01*
X39728Y26654D01*
X39827Y26622D01*
X40243Y25943D01*
X40870Y25208D01*
X41604Y24581D01*
X42427Y24077D01*
X43319Y23707D01*
X44258Y23482D01*
X45211Y23407D01*
Y23113D01*
X44258Y23038D01*
G37*
G36*
X35380Y984D02*Y10808D01*
X36340Y10884D01*
X37279Y11109D01*
X38171Y11478D01*
X38994Y11983D01*
X39729Y12610D01*
X40299Y13278D01*
X40870Y12610D01*
X41604Y11983D01*
X42427Y11478D01*
X43319Y11109D01*
X44258Y10884D01*
X45211Y10809D01*
Y984D01*
X35380D01*
G37*
G36*
Y392717D02*Y61554D01*
X35254Y61514D01*
X35113Y61443D01*
X34984Y61351D01*
X34872Y61240D01*
X34778Y61113D01*
X34705Y60973D01*
X34655Y60823D01*
X34629Y60667D01*
X34628Y60509D01*
X34652Y60352D01*
X34702Y60203D01*
X34834Y59841D01*
X34926Y59467D01*
X34981Y59086D01*
X35000Y58701D01*
X34981Y58316D01*
X34926Y57935D01*
X34834Y57561D01*
X34707Y57197D01*
X34656Y57048D01*
X34633Y56893D01*
X34634Y56735D01*
X34660Y56580D01*
X34709Y56431D01*
X34782Y56291D01*
X34875Y56164D01*
X34987Y56054D01*
X35115Y55962D01*
X35256Y55892D01*
X35380Y55852D01*
Y35693D01*
X35108D01*
X34570Y35645D01*
X34039Y35551D01*
X33517Y35410D01*
X33011Y35224D01*
X32870Y35153D01*
X32742Y35060D01*
X32631Y34948D01*
X32538Y34819D01*
X32467Y34678D01*
X32418Y34528D01*
X32394Y34372D01*
X32395Y34214D01*
X32420Y34058D01*
X32469Y33908D01*
X32541Y33767D01*
X32635Y33640D01*
X32747Y33528D01*
X32875Y33436D01*
X33016Y33364D01*
X33166Y33316D01*
X33323Y33292D01*
X33481Y33292D01*
X33637Y33317D01*
X33786Y33370D01*
X34125Y33499D01*
X34476Y33593D01*
X34834Y33657D01*
X35196Y33689D01*
X35380D01*
Y25429D01*
X35196D01*
X34834Y25461D01*
X34476Y25525D01*
X34125Y25620D01*
X33784Y25745D01*
X33636Y25797D01*
X33480Y25822D01*
X33323Y25822D01*
X33167Y25798D01*
X33018Y25750D01*
X32877Y25679D01*
X32749Y25587D01*
X32638Y25476D01*
X32545Y25349D01*
X32473Y25209D01*
X32424Y25059D01*
X32399Y24904D01*
X32398Y24747D01*
X32422Y24591D01*
X32471Y24441D01*
X32542Y24301D01*
X32634Y24173D01*
X32745Y24061D01*
X32872Y23969D01*
X33013Y23899D01*
X33517Y23708D01*
X34039Y23567D01*
X34570Y23473D01*
X35108Y23425D01*
X35380D01*
Y23113D01*
X35378Y23113D01*
X34415Y23038D01*
X33477Y22812D01*
X32585Y22443D01*
X31761Y21938D01*
X31027Y21311D01*
X30445Y20629D01*
Y26594D01*
X30565Y26575D01*
X30723Y26576D01*
X30879Y26601D01*
X31029Y26650D01*
X31170Y26723D01*
X31298Y26816D01*
X31409Y26928D01*
X31501Y27056D01*
X31573Y27197D01*
X31621Y27348D01*
X31645Y27504D01*
X31645Y27662D01*
X31620Y27818D01*
X31567Y27967D01*
X31438Y28306D01*
X31344Y28657D01*
X31280Y29015D01*
X31248Y29377D01*
Y29741D01*
X31280Y30103D01*
X31344Y30461D01*
X31438Y30812D01*
X31564Y31153D01*
X31616Y31301D01*
X31641Y31457D01*
X31641Y31614D01*
X31617Y31770D01*
X31569Y31919D01*
X31498Y32060D01*
X31406Y32188D01*
X31295Y32299D01*
X31168Y32392D01*
X31028Y32464D01*
X30878Y32513D01*
X30723Y32538D01*
X30565Y32539D01*
X30445Y32520D01*
Y52721D01*
X31000Y52694D01*
X31578Y52722D01*
X32150Y52805D01*
X32712Y52943D01*
X33258Y53134D01*
X33400Y53204D01*
X33529Y53296D01*
X33641Y53407D01*
X33735Y53535D01*
X33808Y53675D01*
X33858Y53825D01*
X33884Y53981D01*
X33885Y54139D01*
X33861Y54296D01*
X33813Y54446D01*
X33743Y54588D01*
X33651Y54716D01*
X33540Y54829D01*
X33412Y54923D01*
X33272Y54996D01*
X33122Y55046D01*
X32966Y55072D01*
X32808Y55073D01*
X32652Y55049D01*
X32502Y54998D01*
X32140Y54867D01*
X31766Y54775D01*
X31385Y54719D01*
X31000Y54701D01*
X30615Y54719D01*
X30445Y54744D01*
Y62657D01*
X30615Y62682D01*
X31000Y62701D01*
X31385Y62682D01*
X31766Y62627D01*
X32140Y62535D01*
X32504Y62407D01*
X32653Y62357D01*
X32808Y62334D01*
X32966Y62335D01*
X33121Y62360D01*
X33270Y62410D01*
X33410Y62483D01*
X33537Y62576D01*
X33647Y62688D01*
X33739Y62816D01*
X33809Y62957D01*
X33857Y63107D01*
X33880Y63263D01*
X33879Y63420D01*
X33853Y63575D01*
X33804Y63725D01*
X33731Y63864D01*
X33638Y63991D01*
X33525Y64102D01*
X33397Y64193D01*
X33256Y64261D01*
X32712Y64459D01*
X32150Y64597D01*
X31578Y64680D01*
X31000Y64708D01*
X30445Y64681D01*
Y392717D01*
X35380D01*
G37*
G36*
X30445Y984D02*Y13292D01*
X31027Y12610D01*
X31761Y11983D01*
X32585Y11478D01*
X33477Y11109D01*
X34415Y10884D01*
X35378Y10808D01*
X35380Y10808D01*
Y984D01*
X30445D01*
G37*
G36*
X26182D02*Y17245D01*
X26307Y17546D01*
X26681Y19104D01*
X26776Y20701D01*
X26681Y22298D01*
X26307Y23855D01*
X26182Y24157D01*
Y55833D01*
X26280Y55817D01*
X26438Y55816D01*
X26595Y55840D01*
X26746Y55887D01*
X26887Y55958D01*
X27016Y56050D01*
X27128Y56161D01*
X27222Y56288D01*
X27295Y56429D01*
X27345Y56579D01*
X27371Y56735D01*
X27372Y56893D01*
X27348Y57049D01*
X27298Y57199D01*
X27166Y57561D01*
X27074Y57935D01*
X27019Y58316D01*
X27000Y58701D01*
X27019Y59086D01*
X27074Y59467D01*
X27166Y59841D01*
X27293Y60204D01*
X27344Y60353D01*
X27367Y60509D01*
X27366Y60666D01*
X27340Y60822D01*
X27291Y60971D01*
X27218Y61111D01*
X27125Y61237D01*
X27013Y61348D01*
X26885Y61439D01*
X26744Y61510D01*
X26594Y61557D01*
X26438Y61581D01*
X26281Y61580D01*
X26182Y61564D01*
Y392717D01*
X30445D01*
Y64681D01*
X30422Y64680D01*
X29850Y64597D01*
X29288Y64459D01*
X28742Y64267D01*
X28600Y64197D01*
X28471Y64105D01*
X28359Y63994D01*
X28265Y63867D01*
X28192Y63726D01*
X28142Y63576D01*
X28116Y63420D01*
X28115Y63262D01*
X28139Y63106D01*
X28187Y62955D01*
X28257Y62814D01*
X28349Y62685D01*
X28460Y62573D01*
X28588Y62479D01*
X28728Y62406D01*
X28878Y62356D01*
X29034Y62330D01*
X29192Y62329D01*
X29348Y62352D01*
X29498Y62403D01*
X29860Y62535D01*
X30234Y62627D01*
X30445Y62657D01*
Y54744D01*
X30234Y54775D01*
X29860Y54867D01*
X29496Y54994D01*
X29347Y55045D01*
X29192Y55068D01*
X29034Y55067D01*
X28879Y55041D01*
X28730Y54991D01*
X28590Y54919D01*
X28463Y54826D01*
X28353Y54713D01*
X28261Y54585D01*
X28191Y54445D01*
X28143Y54295D01*
X28120Y54139D01*
X28121Y53982D01*
X28147Y53826D01*
X28196Y53677D01*
X28269Y53537D01*
X28362Y53411D01*
X28474Y53300D01*
X28603Y53208D01*
X28744Y53141D01*
X29288Y52943D01*
X29850Y52805D01*
X30422Y52722D01*
X30445Y52721D01*
Y32520D01*
X30410Y32515D01*
X30260Y32466D01*
X30120Y32395D01*
X29992Y32303D01*
X29880Y32192D01*
X29787Y32065D01*
X29718Y31924D01*
X29527Y31420D01*
X29386Y30898D01*
X29292Y30367D01*
X29244Y29829D01*
Y29289D01*
X29292Y28751D01*
X29386Y28220D01*
X29527Y27699D01*
X29713Y27192D01*
X29784Y27051D01*
X29877Y26923D01*
X29989Y26812D01*
X30118Y26719D01*
X30259Y26648D01*
X30409Y26600D01*
X30445Y26594D01*
Y20629D01*
X30400Y20577D01*
X29896Y19754D01*
X29526Y18862D01*
X29301Y17923D01*
X29225Y16961D01*
X29301Y15998D01*
X29526Y15059D01*
X29896Y14167D01*
X30400Y13344D01*
X30445Y13292D01*
Y984D01*
X26182D01*
G37*
G36*
X25694Y25335D02*X24857Y26701D01*
X23817Y27919D01*
X22599Y28960D01*
X21233Y29797D01*
X19753Y30410D01*
X18195Y30784D01*
X16598Y30909D01*
X16583Y30908D01*
Y392717D01*
X26182D01*
Y61564D01*
X26125Y61554D01*
X25976Y61504D01*
X25836Y61432D01*
X25710Y61338D01*
X25599Y61226D01*
X25508Y61098D01*
X25440Y60956D01*
X25242Y60413D01*
X25104Y59851D01*
X25021Y59279D01*
X24993Y58701D01*
X25021Y58123D01*
X25104Y57550D01*
X25242Y56989D01*
X25434Y56443D01*
X25504Y56301D01*
X25596Y56172D01*
X25707Y56060D01*
X25834Y55966D01*
X25974Y55893D01*
X26124Y55843D01*
X26182Y55833D01*
Y24157D01*
X25694Y25335D01*
G37*
G36*
X16583Y984D02*Y10493D01*
X16598Y10492D01*
X18195Y10618D01*
X19753Y10992D01*
X21233Y11605D01*
X22599Y12442D01*
X23817Y13482D01*
X24857Y14700D01*
X25694Y16066D01*
X26182Y17245D01*
Y984D01*
X16583D01*
G37*
G36*
Y392717D02*Y30908D01*
X15001Y30784D01*
X13444Y30410D01*
X11964Y29797D01*
X10992Y29201D01*
Y53184D01*
X11000Y53184D01*
X11863Y53252D01*
X12705Y53454D01*
X13505Y53785D01*
X14243Y54237D01*
X14901Y54800D01*
X15463Y55458D01*
X15916Y56196D01*
X16247Y56996D01*
X16449Y57838D01*
X16500Y58701D01*
X16449Y59564D01*
X16247Y60406D01*
X15916Y61205D01*
X15463Y61944D01*
X14901Y62602D01*
X14243Y63164D01*
X13505Y63616D01*
X12705Y63948D01*
X11863Y64150D01*
X11000Y64218D01*
X10992Y64217D01*
Y392717D01*
X16583D01*
G37*
G36*
X10992Y984D02*Y12201D01*
X11964Y11605D01*
X13444Y10992D01*
X15001Y10618D01*
X16583Y10493D01*
Y984D01*
X10992D01*
G37*
G36*
X984D02*Y392717D01*
X10992D01*
Y64217D01*
X10137Y64150D01*
X9295Y63948D01*
X8495Y63616D01*
X7757Y63164D01*
X7099Y62602D01*
X6537Y61944D01*
X6084Y61205D01*
X5753Y60406D01*
X5551Y59564D01*
X5483Y58701D01*
X5551Y57838D01*
X5753Y56996D01*
X6084Y56196D01*
X6537Y55458D01*
X7099Y54800D01*
X7757Y54237D01*
X8495Y53785D01*
X9295Y53454D01*
X10137Y53252D01*
X10992Y53184D01*
Y29201D01*
X10598Y28960D01*
X9380Y27919D01*
X8340Y26701D01*
X7503Y25335D01*
X6890Y23855D01*
X6516Y22298D01*
X6390Y20701D01*
X6516Y19104D01*
X6890Y17546D01*
X7503Y16066D01*
X8340Y14700D01*
X9380Y13482D01*
X10598Y12442D01*
X10992Y12201D01*
Y984D01*
X984D01*
G37*
G54D23*X264032Y40779D02*X276378Y49606D01*
X206299Y39764D02*X218898Y40551D01*
X303670Y57371D02*X305356D01*
X317000Y49701D02*X337000D01*
X317000D02*X313000Y45701D01*
Y40701D01*
X319986Y57750D02*X329624Y69547D01*
X372441Y105512D02*X367830Y91472D01*
X386525Y132000D02*Y89226D01*
X354199Y86754D02*Y66900D01*
X386525Y89176D02*X386475D01*
X337000Y49701D02*X354199Y66900D01*
X386525Y89226D02*X338000Y40701D01*
X325500Y30701D02*X323000Y33201D01*
X357000Y30701D02*X325500D01*
X85409Y10701D02*X174000D01*
X85409Y28701D02*X135000D01*
X144000Y19701D02*X239000D01*
X135000Y28701D02*X144000Y19701D01*
X323000Y33201D02*Y40701D01*
X303000Y10701D02*X246000D01*
X239000Y19701D02*X248000Y10701D01*
X365000Y38701D02*X357000Y30701D01*
X338000Y40701D02*X333000D01*
G54D22*G36*
X57000Y62701D02*Y54701D01*
X49000D01*
Y62701D01*
X57000D01*
G37*
G54D24*X63000Y58701D03*
G54D25*X16598Y20701D03*
G54D26*X35378Y29559D03*
Y16961D03*
G54D24*X31000Y58701D03*
X11000D03*
G54D25*X64000Y20701D03*
G54D26*X45220Y16961D03*
Y29559D03*
G54D22*G36*
X193049Y43014D02*X199549D01*
Y36514D01*
X193049D01*
Y43014D01*
G37*
G36*
X169000Y14701D02*X177000D01*
Y6701D01*
X169000D01*
Y14701D01*
G37*
G54D24*X203000Y10701D03*
X218000D03*
G54D27*X85409Y28701D03*
X111000D03*
X85409Y10701D03*
X111000D03*
G54D28*X206299Y39764D03*
G54D22*G36*
X214564Y44187D02*X222534Y44885D01*
X223231Y36915D01*
X215261Y36218D01*
X214564Y44187D01*
G37*
G36*
X264456Y54415D02*X265807Y48057D01*
X259449Y46705D01*
X258098Y53063D01*
X264456Y54415D01*
G37*
G36*
X271479Y52435D02*X279206Y54505D01*
X281277Y46778D01*
X273550Y44707D01*
X271479Y52435D01*
G37*
G54D28*X264032Y40779D03*
G54D24*X248783Y43166D03*
G54D22*G36*
X252000Y6701D02*X244000D01*
Y14701D01*
X252000D01*
Y6701D01*
G37*
G36*
X316867Y71031D02*X319818Y65239D01*
X314026Y62289D01*
X311075Y68080D01*
X316867Y71031D01*
G37*
G54D28*X319986Y57750D03*
G54D24*X305356Y57371D03*
X303000Y40701D03*
X313000D03*
X323000D03*
X333000D03*
G54D22*G36*
X360356Y102885D02*X365110Y98452D01*
X360677Y93698D01*
X355923Y98131D01*
X360356Y102885D01*
G37*
G54D28*X367830Y91472D03*
G54D22*G36*
X324053Y70529D02*X330607Y75118D01*
X335195Y68565D01*
X328642Y63976D01*
X324053Y70529D01*
G37*
G54D24*X354199Y86754D03*
G54D22*G36*
X367031Y103858D02*X370787Y110921D01*
X377851Y107166D01*
X374095Y100102D01*
X367031Y103858D01*
G37*
G54D24*X386525Y132000D03*
X365000Y19016D02*Y13858D01*
G54D22*G36*
X299000Y6701D02*Y14701D01*
X307000D01*
Y6701D01*
X299000D01*
G37*
G54D24*X313000Y10701D03*
X323000D03*
X333000D03*
G54D22*G36*
X369000Y47858D02*Y34658D01*
X361000D01*
Y47858D01*
X369000D01*
G37*
G54D23*G54D29*G54D30*G54D23*G54D29*G54D30*G54D31*G54D23*G54D32*G54D31*G54D23*G54D31*G54D23*G54D31*G54D23*G54D31*G54D23*G54D31*G54D23*M02*
