M48
INCH
T14C0.043
T13C0.036
T12C0.091
T11C0.039
%
T13
G05
X003538Y002956
X003538Y001696
X004522Y001696
X004522Y002956
T11
X005300Y005870
X006300Y005870
X003100Y005870
X001100Y005870
X017300Y001070
X020300Y001070
X021800Y001070
X008541Y002870
X011100Y002870
X008541Y001070
X011100Y001070
X021890Y004055
X027638Y004961
X024878Y004317
X024800Y001070
X030536Y005737
X030300Y004070
X031300Y004070
X032300Y004070
X033300Y004070
X032962Y006955
X035420Y008675
X037244Y010551
X038653Y013200
X030300Y001070
X031300Y001070
X032300Y001070
X033300Y001070
T14
X019630Y003976
X020630Y003976
X026195Y005056
X026403Y004078
X031545Y006666
X031999Y005775
X036052Y009829
X036783Y009147
T12
X001660Y002070
X006400Y002070
M30
