G04 start of page 2 for group 11 layer_idx 11 *
G04 Title: (unknown), bottom_mask *
G04 Creator: pcb-rnd 3.1.4-dev *
G04 CreationDate: 2024-01-01 06:15:13 UTC *
G04 For: STEM4ukraine *
G04 Format: Gerber/RS-274X *
G04 PCB-Dimensions: 393701 393701 *
G04 PCB-Coordinate-Origin: lower left *
%MOIN*%
%FSLAX25Y25*%
%LNBOTTOM_MASK_NONE_11*%
%ADD75C,0.0710*%
%ADD74C,0.0960*%
%ADD73C,0.0887*%
%ADD72C,0.1595*%
%ADD71C,0.0860*%
%ADD70C,0.0001*%
G54D70*G36*
X57300Y63001D02*Y54401D01*
X48700D01*
Y63001D01*
X57300D01*
G37*
G54D71*X63000Y58701D03*
G54D72*X16598Y20701D03*
G54D73*X35378Y29559D03*
Y16961D03*
G54D71*X31000Y58701D03*
X11000D03*
G54D72*X64000Y20701D03*
G54D73*X45220Y16961D03*
Y29559D03*
G54D70*G36*
X192749Y43314D02*X199849D01*
Y36214D01*
X192749D01*
Y43314D01*
G37*
G36*
X168700Y15001D02*X177300D01*
Y6401D01*
X168700D01*
Y15001D01*
G37*
G54D71*X203000Y10701D03*
X218000D03*
G54D74*X85409Y28701D03*
X111000D03*
X85409Y10701D03*
X111000D03*
G54D75*X206299Y39764D03*
G54D70*G36*
X214239Y44460D02*X222807Y45210D01*
X223556Y36642D01*
X214989Y35893D01*
X214239Y44460D01*
G37*
G36*
X264687Y54771D02*X266163Y47826D01*
X259218Y46350D01*
X257742Y53294D01*
X264687Y54771D01*
G37*
G36*
X271112Y52647D02*X279419Y54873D01*
X281644Y46566D01*
X273337Y44340D01*
X271112Y52647D01*
G37*
G54D75*X264032Y40779D03*
G54D71*X248783Y43166D03*
G54D70*G36*
X252300Y6401D02*X243700D01*
Y15001D01*
X252300D01*
Y6401D01*
G37*
G36*
X316998Y71434D02*X320221Y65108D01*
X313895Y61885D01*
X310672Y68211D01*
X316998Y71434D01*
G37*
G54D75*X319986Y57750D03*
G54D71*X305356Y57371D03*
X303000Y40701D03*
X313000D03*
X323000D03*
X333000D03*
G54D70*G36*
X360341Y103309D02*X365534Y98467D01*
X360692Y93274D01*
X355499Y98117D01*
X360341Y103309D01*
G37*
G54D75*X367830Y91472D03*
G54D70*G36*
X323636Y70603D02*X330680Y75536D01*
X335613Y68491D01*
X328568Y63558D01*
X323636Y70603D01*
G37*
G54D71*X354199Y86754D03*
G54D70*G36*
X366626Y103734D02*X370663Y111327D01*
X378256Y107290D01*
X374219Y99696D01*
X366626Y103734D01*
G37*
G54D71*X386525Y132000D03*
X365000Y19016D02*Y13858D01*
G54D70*G36*
X298700Y6401D02*Y15001D01*
X307300D01*
Y6401D01*
X298700D01*
G37*
G54D71*X313000Y10701D03*
X323000D03*
X333000D03*
G54D70*G36*
X369300Y48158D02*Y34358D01*
X360700D01*
Y48158D01*
X369300D01*
G37*
M02*
